<svg width="19" height="15" viewBox="0 0 19 15" fill="none" xmlns="http://www.w3.org/2000/svg">
<g clip-path="url(#clip0_0_129)">
<path d="M11.9025 0.79746C11.6258 1.05931 5.23096 7.23777 4.82386 7.62165L2.61095 5.5455C1.19805 4.12015 2.32003 1.68385 4.38482 1.68385C4.94448 1.68385 5.7312 1.8957 6.18442 2.48126L5.25491 3.42613C4.84603 3.06682 4.58793 2.98293 4.38482 2.98293C3.55554 2.98293 3.0828 3.91508 3.5919 4.52945L5.10502 5.94886C5.22032 5.83616 8.13214 2.9609 8.37427 2.72277C7.73834 0.958467 6.06823 -0.0736778 4.12761 0.0161476C0.211777 0.200036 -1.44236 4.88113 1.49429 7.21489L4.86466 10.3867C11.7287 3.92864 9.44836 5.9192 12.793 2.89734C14.1722 1.24065 16.9838 2.16942 16.9838 4.29387C16.9843 4.80341 16.8028 5.29786 16.4694 5.69549C15.8006 6.32681 10.589 11.3731 9.70823 12.2078L8.79025 11.3384L15.531 4.78876C16.182 3.72018 14.5864 2.73803 13.8201 3.6973C13.6649 3.84136 5.93785 11.1418 5.8057 11.2647L9.77741 15L18.0055 6.99118C18.6523 6.22817 19.0047 5.27575 19.0033 4.29387C18.9998 0.772885 14.8347 -1.19989 11.9025 0.79746Z" fill="#FF3D4F"/>
</g>
<defs>
<clipPath id="clip0_0_129">
<rect width="19" height="15" fill="white"/>
</clipPath>
</defs>
</svg>
