<svg width="52" height="15" viewBox="0 0 52 15" fill="none" xmlns="http://www.w3.org/2000/svg">
<path d="M8.4043 14H1.97949V11.7764H8.4043V14ZM2.8584 14H0.0986328V1.20312H2.8584V14ZM9.30957 9.15723C9.30957 8.23145 9.48535 7.40527 9.83691 6.67871C10.1885 5.94629 10.7012 5.36914 11.375 4.94727C12.0488 4.52539 12.8662 4.31445 13.8271 4.31445C14.7998 4.31445 15.623 4.52539 16.2969 4.94727C16.9766 5.36914 17.4893 5.94629 17.835 6.67871C18.1865 7.40527 18.3623 8.23145 18.3623 9.15723V9.3418C18.3623 10.2617 18.1865 11.0879 17.835 11.8203C17.4893 12.5527 16.9795 13.1299 16.3057 13.5518C15.6318 13.9678 14.8115 14.1758 13.8447 14.1758C12.8779 14.1758 12.0547 13.9678 11.375 13.5518C10.7012 13.1299 10.1885 12.5527 9.83691 11.8203C9.48535 11.0879 9.30957 10.2617 9.30957 9.3418V9.15723ZM11.9727 9.3418C11.9727 9.83984 12.0312 10.2939 12.1484 10.7041C12.2715 11.1143 12.4678 11.4395 12.7373 11.6797C13.0127 11.9199 13.3818 12.04 13.8447 12.04C14.3018 12.04 14.665 11.9199 14.9346 11.6797C15.21 11.4395 15.4062 11.1143 15.5234 10.7041C15.6465 10.2939 15.708 9.83984 15.708 9.3418V9.15723C15.708 8.6709 15.6465 8.22266 15.5234 7.8125C15.4062 7.39648 15.21 7.06543 14.9346 6.81934C14.665 6.57324 14.2959 6.4502 13.8271 6.4502C13.3701 6.4502 13.0039 6.57324 12.7285 6.81934C12.459 7.06543 12.2656 7.39648 12.1484 7.8125C12.0312 8.22266 11.9727 8.6709 11.9727 9.15723V9.3418ZM25.0244 4.49023H27.8018L24.6201 14H22.9414L22.9941 12.04L25.0244 4.49023ZM23.6885 12.0488L23.7324 14H22.0537L18.8633 4.49023H21.6582L23.6885 12.0488ZM33.3213 14.1758C32.3193 14.1758 31.4609 13.9678 30.7461 13.5518C30.0371 13.1357 29.4922 12.5791 29.1113 11.8818C28.7363 11.1846 28.5488 10.4141 28.5488 9.57031V9.22754C28.5488 8.27832 28.7275 7.43457 29.085 6.69629C29.4482 5.95215 29.9639 5.36914 30.6318 4.94727C31.2998 4.52539 32.0967 4.31445 33.0225 4.31445C33.9424 4.31445 34.7158 4.50781 35.3428 4.89453C35.9697 5.28125 36.4443 5.82617 36.7666 6.5293C37.0889 7.22656 37.25 8.04688 37.25 8.99023V10.1152H29.665V8.33105H34.6396V8.12012C34.6396 7.79199 34.5811 7.50195 34.4639 7.25C34.3467 6.99805 34.168 6.80176 33.9277 6.66113C33.6934 6.52051 33.3857 6.4502 33.0049 6.4502C32.5713 6.4502 32.2227 6.57324 31.959 6.81934C31.6953 7.06543 31.502 7.39648 31.3789 7.8125C31.2617 8.22852 31.2031 8.7002 31.2031 9.22754V9.57031C31.2031 10.0566 31.2939 10.4844 31.4756 10.8535C31.6572 11.2227 31.918 11.5127 32.2578 11.7236C32.5977 11.9287 33.0078 12.0312 33.4883 12.0312C33.9395 12.0312 34.3613 11.9492 34.7539 11.7852C35.1465 11.6152 35.4805 11.3516 35.7559 10.9941L37.0391 12.4619C36.7402 12.8896 36.2773 13.2822 35.6504 13.6396C35.0293 13.9971 34.2529 14.1758 33.3213 14.1758ZM41.4336 14H38.7705V0.5H41.4336V14ZM46.2676 14H43.6045V0.5H46.2676V14ZM51.1016 14H48.4385V4.49023H51.1016V14ZM48.2803 2.03809C48.2803 1.63965 48.415 1.31445 48.6846 1.0625C48.9541 0.804688 49.3145 0.675781 49.7656 0.675781C50.2168 0.675781 50.5742 0.804688 50.8379 1.0625C51.1074 1.31445 51.2422 1.63965 51.2422 2.03809C51.2422 2.43066 51.1074 2.75586 50.8379 3.01367C50.5742 3.27148 50.2168 3.40039 49.7656 3.40039C49.3145 3.40039 48.9541 3.27148 48.6846 3.01367C48.415 2.75586 48.2803 2.43066 48.2803 2.03809Z" fill="#5B5B5B"/>
</svg>
